<svg width="60" height="60" viewBox="0 0 60 60" fill="none" xmlns="http://www.w3.org/2000/svg">
<path d="M47.6244 4.14687H40.1427C39.736 2.94298 38.5967 2.07343 37.2572 2.07343H34.0932C33.1329 0.782073 31.6117 0 30.0002 0C28.3888 0 26.8675 0.782073 25.9072 2.07343H22.7432C21.4038 2.07343 20.2644 2.94298 19.8577 4.14687H12.376C10.1252 4.14687 8.29395 5.9781 8.29395 8.22894V55.9179C8.29395 58.1688 10.1252 60 12.376 60H47.6244C49.8752 60 51.7065 58.1688 51.7065 55.9179V8.22894C51.7065 5.9781 49.8752 4.14687 47.6244 4.14687ZM19.8577 10.2376C20.2644 11.4415 21.4038 12.311 22.7432 12.311H37.2572C38.5967 12.311 39.736 11.4415 40.1427 10.2376H45.6158V53.9093H14.3847V10.2376H19.8577ZM22.7432 4.01728H26.4285C26.7745 4.01728 27.0944 3.83326 27.2685 3.53417C27.8481 2.5384 28.8693 1.94384 30.0002 1.94384C31.1311 1.94384 32.1523 2.5384 32.7318 3.53417C32.906 3.83326 33.226 4.01728 33.5718 4.01728H37.2572C37.8646 4.01728 38.3587 4.5114 38.3587 5.11879V9.2632C38.3587 9.2641 38.3586 9.26488 38.3586 9.26566C38.3586 9.26605 38.3586 9.26644 38.3586 9.26695C38.358 9.87369 37.8641 10.3672 37.2571 10.3672H22.7431C22.1366 10.3672 21.6431 9.87434 21.6417 9.26812C21.6417 9.26721 21.6418 9.26644 21.6418 9.26566C21.6418 9.26397 21.6415 9.26229 21.6415 9.2606V5.11879C21.6417 4.5114 22.1358 4.01728 22.7432 4.01728ZM49.7626 55.9179C49.7626 57.0969 48.8034 58.0562 47.6244 58.0562H12.376C11.197 58.0562 10.2378 57.0969 10.2378 55.9179V8.22894C10.2378 7.04994 11.197 6.09071 12.376 6.09071H19.6978V8.29374H13.4127C12.8758 8.29374 12.4408 8.72877 12.4408 9.26566V54.8812C12.4408 55.4181 12.8758 55.8531 13.4127 55.8531H46.5877C47.1246 55.8531 47.5596 55.4181 47.5596 54.8812V9.26566C47.5596 8.72877 47.1246 8.29374 46.5877 8.29374H40.3026V6.09071H47.6244C48.8034 6.09071 49.7626 7.04994 49.7626 8.22894V55.9179Z" fill="#337FA8"/>
<path d="M30.0002 8.16413C30.5371 8.16413 30.9722 7.72909 30.9722 7.1922V5.11877C30.9722 4.58188 30.5371 4.14685 30.0002 4.14685C29.4634 4.14685 29.0283 4.58188 29.0283 5.11877V7.1922C29.0283 7.72909 29.4634 8.16413 30.0002 8.16413Z" fill="#337FA8"/>
<path d="M31.0369 21.6415H37.2572C37.7941 21.6415 38.2291 21.2064 38.2291 20.6696C38.2291 20.1327 37.7941 19.6976 37.2572 19.6976H31.0369C30.5 19.6976 30.0649 20.1327 30.0649 20.6696C30.0649 21.2064 30.5 21.6415 31.0369 21.6415Z" fill="#337FA8"/>
<path d="M31.0369 25.7883H41.404C41.9409 25.7883 42.376 25.3533 42.376 24.8164C42.376 24.2795 41.9409 23.8445 41.404 23.8445H31.0369C30.5 23.8445 30.0649 24.2795 30.0649 24.8164C30.0649 25.3533 30.5 25.7883 31.0369 25.7883Z" fill="#337FA8"/>
<path d="M21.0192 25.5038C21.2091 25.6935 21.4579 25.7884 21.7066 25.7884C21.9552 25.7884 22.2041 25.6935 22.3939 25.5038L27.5775 20.3202C27.9571 19.9405 27.9571 19.3252 27.5775 18.9457C27.1978 18.5662 26.5825 18.5662 26.2029 18.9457L21.7066 23.442L19.2837 21.0191C18.904 20.6396 18.2888 20.6396 17.9092 21.0191C17.5296 21.3988 17.5296 22.0141 17.9092 22.3936L21.0192 25.5038Z" fill="#337FA8"/>
<path d="M31.0369 32.0087H37.2572C37.7941 32.0087 38.2291 31.5736 38.2291 31.0367C38.2291 30.4999 37.7941 30.0648 37.2572 30.0648H31.0369C30.5 30.0648 30.0649 30.4999 30.0649 31.0367C30.0649 31.5736 30.5 32.0087 31.0369 32.0087Z" fill="#337FA8"/>
<path d="M31.0369 36.1555H41.404C41.9409 36.1555 42.376 35.7205 42.376 35.1836C42.376 34.6467 41.9409 34.2117 41.404 34.2117H31.0369C30.5 34.2117 30.0649 34.6467 30.0649 35.1836C30.0649 35.7205 30.5 36.1555 31.0369 36.1555Z" fill="#337FA8"/>
<path d="M21.0192 35.871C21.2091 36.0607 21.4579 36.1556 21.7066 36.1556C21.9552 36.1556 22.2041 36.0607 22.3939 35.871L27.5775 30.6874C27.9571 30.3077 27.9571 29.6924 27.5775 29.3128C27.1978 28.9334 26.5825 28.9334 26.2029 29.3128L21.7066 33.8092L19.2837 31.3863C18.904 31.0068 18.2888 31.0068 17.9092 31.3863C17.5296 31.766 17.5296 32.3813 17.9092 32.7608L21.0192 35.871Z" fill="#337FA8"/>
<path d="M31.0369 42.3758H37.2572C37.7941 42.3758 38.2291 41.9408 38.2291 41.4039C38.2291 40.867 37.7941 40.4319 37.2572 40.4319H31.0369C30.5 40.4319 30.0649 40.867 30.0649 41.4039C30.0649 41.9408 30.5 42.3758 31.0369 42.3758Z" fill="#337FA8"/>
<path d="M31.0369 46.5227H41.404C41.9409 46.5227 42.376 46.0877 42.376 45.5508C42.376 45.0139 41.9409 44.5789 41.404 44.5789H31.0369C30.5 44.5789 30.0649 45.0139 30.0649 45.5508C30.0649 46.0877 30.5 46.5227 31.0369 46.5227Z" fill="#337FA8"/>
<path d="M21.0192 46.2381C21.2091 46.4278 21.4579 46.5227 21.7066 46.5227C21.9552 46.5227 22.2041 46.4278 22.3939 46.2381L27.5775 41.0545C27.9571 40.6748 27.9571 40.0595 27.5775 39.68C27.1978 39.3005 26.5825 39.3005 26.2029 39.68L21.7066 44.1763L19.2837 41.7534C18.904 41.374 18.2888 41.374 17.9092 41.7534C17.5296 42.1331 17.5296 42.7484 17.9092 43.128L21.0192 46.2381Z" fill="#337FA8"/>
</svg>
