<svg width="60" height="60" viewBox="0 0 60 60" fill="none" xmlns="http://www.w3.org/2000/svg">
<g clip-path="url(#clip0)">
<path d="M51.245 20.4397C50.839 9.97997 41.3071 0.436826 30.8468 0.0174717C24.9979 -0.213737 19.4407 1.88868 15.222 5.94176C11.0069 9.9933 8.68457 15.4403 8.68457 21.279C8.68457 27.9128 11.6887 34.0447 16.925 38.1019C21.074 41.3219 22.8442 44.6198 22.8442 49.1286V54.9842C22.8442 55.6471 23.3815 56.1844 24.0438 56.1844C25.4864 56.1844 26.6599 57.3578 26.6599 58.7999C26.6599 59.4628 27.1972 60.0001 27.8601 60.0001H32.0833C32.7457 60.0001 33.283 59.4628 33.283 58.7999C33.283 57.3578 34.4564 56.1844 35.8991 56.1844C36.5619 56.1844 37.0992 55.6471 37.0992 54.9842V49.1286C37.0992 44.6803 38.9109 41.348 43.1593 37.987C48.4889 33.7781 51.5116 27.2186 51.245 20.4397ZM31.0283 57.6003H28.9146C28.4706 55.7963 27.048 54.3736 25.244 53.9297V50.3298H34.6989V53.9297C32.8954 54.3736 31.4728 55.7963 31.0283 57.6003ZM41.6711 36.1045C41.6706 36.1045 41.6706 36.1051 41.6701 36.1051C37.2309 39.6178 35.0798 43.3146 34.7635 47.93H25.1814C24.8738 43.2587 22.7617 39.5942 18.3953 36.205C13.7491 32.6062 11.0848 27.1653 11.0848 21.279C11.0848 16.0996 13.1447 11.2673 16.8856 7.67198C20.6285 4.07517 25.5546 2.22395 30.7514 2.41466C40.0306 2.78737 48.4864 11.2534 48.8473 20.5336C49.0872 26.6388 46.4716 32.3134 41.6711 36.1045Z" fill="#337FA8"/>
<path d="M30.0015 13.5711C31.8025 13.5711 33.2677 15.0306 33.2677 16.8244C33.2677 17.4868 33.805 18.0241 34.4678 18.0241C35.1307 18.0241 35.668 17.4868 35.668 16.8244C35.668 14.1166 33.7481 11.8527 31.174 11.3031V10.1645C31.174 9.50162 30.6367 8.96436 29.9739 8.96436C29.3115 8.96436 28.7742 9.50162 28.7742 10.1645V11.3108C26.2407 11.8737 24.3351 14.1335 24.3351 16.8244C24.3351 19.9142 26.8466 22.456 29.9672 22.4903C31.7497 22.5006 33.2 23.9606 33.2 25.7437C33.2 27.5349 31.7497 29.0001 29.9472 29.0103C28.1452 29.0103 26.68 27.5451 26.68 25.7437C26.68 25.0813 26.1428 24.544 25.4804 24.544C24.8175 24.544 24.2803 25.0813 24.2803 25.7437C24.2803 28.4577 26.2007 30.7272 28.7742 31.2778V32.4174C28.7742 33.0798 29.3115 33.6171 29.9739 33.6171C30.6367 33.6171 31.174 33.0798 31.174 32.4174V31.2696C33.6999 30.7041 35.5998 28.4397 35.5998 25.7437C35.5998 22.6446 33.079 20.108 29.9605 20.0906C28.1816 20.0706 26.7354 18.6054 26.7354 16.8244C26.7354 15.0404 28.1913 13.5814 30.0015 13.5711Z" fill="#337FA8"/>
</g>
<defs>
<clipPath id="clip0">
<rect width="60" height="60" fill="white"/>
</clipPath>
</defs>
</svg>
